<svg width="26" height="26" viewBox="0 0 26 26" fill="none" xmlns="http://www.w3.org/2000/svg">
<path d="M13.635 2.52148L24.635 11.5664C25.0615 11.9172 25.1234 12.5471 24.7727 12.9736C24.422 13.3999 23.791 13.4619 23.3645 13.1113L22.0003 11.9893V20.001C22.0003 22.21 20.2092 24.0008 18.0003 24.001H7.9993C5.7903 24.0008 3.9993 22.21 3.9993 20.001V11.9883L2.63407 13.1113C2.20754 13.4614 1.57743 13.3998 1.22684 12.9736C0.876171 12.5471 0.938202 11.9172 1.36454 11.5664L12.3645 2.52148L12.9993 1.99902L13.635 2.52148ZM5.9993 10.3438V20.001C5.9993 21.1054 6.89487 22.0008 7.9993 22.001H11.0003V16.3848C11.0003 15.8325 11.448 15.3848 12.0003 15.3848H13.9993C14.5516 15.3848 14.9993 15.8325 14.9993 16.3848V22.001H18.0003C19.1047 22.0008 20.0003 21.1054 20.0003 20.001V10.3447L12.9993 4.58789L5.9993 10.3438Z" fill="#0095FF"/>
</svg>
