<svg width="30" height="20" viewBox="0 0 30 20" fill="none" xmlns="http://www.w3.org/2000/svg">
<path d="M4.40838 0C1.68653 2.56242 0 6.09952 0 10C0 13.9005 1.68653 17.4376 4.40838 20L6.16733 18.3441C3.90252 16.2119 2.5051 13.2632 2.5051 10C2.5051 6.73681 3.90252 3.78807 6.16733 1.65592L4.40838 0ZM25.5916 0L23.8327 1.65592C26.0975 3.78807 27.4949 6.7368 27.4949 10C27.4949 13.2632 26.0975 16.2119 23.8327 18.3441L25.5916 20C28.3135 17.4376 30 13.9005 30 10C30 6.09953 28.3135 2.56242 25.5916 0ZM7.06516 2.50115C5.0233 4.4234 3.75765 7.07639 3.75765 10C3.75765 12.9236 5.0233 15.5766 7.06516 17.4988L8.82411 15.8429C7.23929 14.3509 6.26274 12.2863 6.26274 10C6.26274 7.71366 7.23929 5.64905 8.82411 4.15707L7.06516 2.50115ZM22.9348 2.50115L21.1759 4.15707C22.7607 5.64905 23.7373 7.71366 23.7373 10C23.7373 12.2863 22.7607 14.3509 21.1759 15.8429L22.9348 17.4988C24.9767 15.5766 26.2424 12.9236 26.2424 10C26.2424 7.07639 24.9767 4.4234 22.9348 2.50115ZM9.72193 5.0023C8.36007 6.28439 7.51529 8.05326 7.51529 10C7.51529 11.9467 8.36007 13.7156 9.72193 14.9977L11.4833 13.3395C10.5785 12.4877 10.0204 11.3095 10.0204 10C10.0204 8.69053 10.5785 7.51234 11.4833 6.66053L9.72193 5.0023ZM20.2781 5.0023L18.5167 6.66053C19.4215 7.51234 19.9796 8.69053 19.9796 10C19.9796 11.3095 19.4215 12.4877 18.5167 13.3395L20.2781 14.9977C21.6399 13.7156 22.4847 11.9467 22.4847 10C22.4847 8.05326 21.6399 6.28439 20.2781 5.0023ZM14.9694 7.64164C14.305 7.64164 13.6678 7.89011 13.1981 8.33239C12.7283 8.77467 12.4643 9.37452 12.4643 10C12.4643 10.6255 12.7283 11.2253 13.1981 11.6676C13.6678 12.1099 14.305 12.3584 14.9694 12.3584C15.6338 12.3584 16.271 12.1099 16.7408 11.6676C17.2106 11.2253 17.4745 10.6255 17.4745 10C17.4745 9.37452 17.2106 8.77467 16.7408 8.33239C16.271 7.89011 15.6338 7.64164 14.9694 7.64164Z" fill="#0095FF"/>
</svg>
