<svg width="21" height="20" viewBox="0 0 21 20" fill="none" xmlns="http://www.w3.org/2000/svg">
<path d="M13.1773 18H4.83325C3.45425 18 2.33325 16.879 2.33325 15.5C2.33325 14.121 3.45425 13 4.83325 13H11.8333C13.7633 13 15.3333 11.43 15.3333 9.5C15.3333 7.57 13.7633 6 11.8333 6H6.97225C6.605 6.71988 6.15023 7.39164 5.61825 8H11.8333C12.6603 8 13.3333 8.673 13.3333 9.5C13.3333 10.327 12.6603 11 11.8333 11H4.83325C2.35225 11 0.333252 13.019 0.333252 15.5C0.333252 17.981 2.35225 20 4.83325 20H14.4263C13.9356 19.3828 13.5165 18.7118 13.1773 18ZM3.33325 0C1.67925 0 0.333252 1.346 0.333252 3C0.333252 6.188 3.33325 8 3.33325 8C3.33325 8 6.33325 6.187 6.33325 3C6.33325 1.346 4.98725 0 3.33325 0ZM3.33325 4.5C3.1362 4.49993 2.9411 4.46106 2.75907 4.38559C2.57705 4.31012 2.41167 4.19954 2.27238 4.06016C2.1331 3.92078 2.02263 3.75533 1.94728 3.57325C1.87193 3.39118 1.83319 3.19605 1.83325 2.999C1.83332 2.80195 1.87219 2.60685 1.94766 2.42482C2.02313 2.2428 2.13371 2.07742 2.27309 1.93813C2.41247 1.79885 2.57792 1.68837 2.76 1.61303C2.94207 1.53768 3.1372 1.49893 3.33425 1.499C3.73221 1.49913 4.11381 1.65735 4.39512 1.93884C4.67642 2.22033 4.83438 2.60204 4.83425 3C4.83412 3.39796 4.6759 3.77956 4.39441 4.06087C4.11292 4.34217 3.73121 4.50013 3.33325 4.5Z" fill="#A0A0A0"/>
<path d="M17.3333 12C15.6793 12 14.3333 13.346 14.3333 15C14.3333 18.188 17.3333 20 17.3333 20C17.3333 20 20.3333 18.187 20.3333 15C20.3333 13.346 18.9873 12 17.3333 12ZM17.3333 16.5C17.1362 16.4999 16.9411 16.4611 16.7591 16.3856C16.577 16.3101 16.4117 16.1995 16.2724 16.0602C16.1331 15.9208 16.0226 15.7553 15.9473 15.5733C15.8719 15.3912 15.8332 15.196 15.8333 14.999C15.8333 14.802 15.8722 14.6068 15.9477 14.4248C16.0231 14.2428 16.1337 14.0774 16.2731 13.9381C16.4125 13.7988 16.5779 13.6884 16.76 13.613C16.9421 13.5377 17.1372 13.4989 17.3343 13.499C17.7322 13.4991 18.1138 13.6573 18.3951 13.9388C18.6764 14.2203 18.8344 14.602 18.8343 15C18.8341 15.398 18.6759 15.7796 18.3944 16.0609C18.1129 16.3422 17.7312 16.5001 17.3333 16.5Z" fill="#A0A0A0"/>
</svg>
