<svg width="12" height="16" viewBox="0 0 12 16" fill="none" xmlns="http://www.w3.org/2000/svg">
<path d="M6 16C5.81667 16 5.65952 15.9467 5.52857 15.84C5.39762 15.7333 5.2994 15.5933 5.23393 15.42C4.98512 14.6733 4.67083 13.9733 4.29107 13.32C3.92441 12.6667 3.40714 11.9 2.73929 11.02C2.07143 10.14 1.52798 9.3 1.10893 8.5C0.702976 7.7 0.5 6.73333 0.5 5.6C0.5 4.04 1.03036 2.72 2.09107 1.64C3.16488 0.546666 4.46786 0 6 0C7.53214 0 8.82857 0.546666 9.88929 1.64C10.9631 2.72 11.5 4.04 11.5 5.6C11.5 6.81333 11.2708 7.82667 10.8125 8.64C10.3673 9.44 9.85 10.2333 9.26072 11.02C8.55357 11.98 8.01667 12.78 7.65 13.42C7.29643 14.0467 7.00179 14.7133 6.76607 15.42C6.7006 15.6067 6.59583 15.7533 6.45179 15.86C6.32083 15.9533 6.17024 16 6 16ZM6 13.14C6.22262 12.6867 6.47143 12.24 6.74643 11.8C7.03452 11.36 7.45357 10.7733 8.00357 10.04C8.56667 9.29333 9.025 8.60667 9.37857 7.98C9.74524 7.34 9.92857 6.54667 9.92857 5.6C9.92857 4.49333 9.54226 3.55333 8.76964 2.78C8.01012 1.99333 7.08691 1.6 6 1.6C4.9131 1.6 3.98333 1.99333 3.21071 2.78C2.45119 3.55333 2.07143 4.49333 2.07143 5.6C2.07143 6.54667 2.24821 7.34 2.60179 7.98C2.96845 8.60667 3.43333 9.29333 3.99643 10.04C4.54643 10.7733 4.95893 11.36 5.23393 11.8C5.52202 12.24 5.77738 12.6867 6 13.14ZM6 7.6C6.55 7.6 7.01488 7.40667 7.39464 7.02C7.7744 6.63333 7.96429 6.16 7.96429 5.6C7.96429 5.04 7.7744 4.56667 7.39464 4.18C7.01488 3.79333 6.55 3.6 6 3.6C5.45 3.6 4.98512 3.79333 4.60536 4.18C4.2256 4.56667 4.03571 5.04 4.03571 5.6C4.03571 6.16 4.2256 6.63333 4.60536 7.02C4.98512 7.40667 5.45 7.6 6 7.6Z" fill="#0095FF"/>
</svg>
