<svg width="20" height="16" viewBox="0 0 20 16" fill="none" xmlns="http://www.w3.org/2000/svg">
<path d="M8 15.35V9.65L9.4 5.65C9.48333 5.46667 9.6 5.31667 9.75 5.2C9.91667 5.06667 10.1167 5 10.35 5H17.65C17.8833 5 18.0833 5.06667 18.25 5.2C18.4167 5.31667 18.5333 5.46667 18.6 5.65L20 9.65V15.35C20 15.5333 19.9333 15.6917 19.8 15.825C19.6833 15.9417 19.5333 16 19.35 16H18.65C18.4667 16 18.3083 15.9417 18.175 15.825C18.0583 15.6917 18 15.5333 18 15.35V14.5H10V15.35C10 15.5333 9.93333 15.6917 9.8 15.825C9.68333 15.9417 9.53333 16 9.35 16H8.65C8.46667 16 8.30833 15.9417 8.175 15.825C8.05833 15.6917 8 15.5333 8 15.35ZM10 8.5H18L17.3 6.5H10.7L10 8.5ZM11 12.5C11.2833 12.5 11.5167 12.4083 11.7 12.225C11.9 12.025 12 11.7833 12 11.5C12 11.2167 11.9 10.9833 11.7 10.8C11.5167 10.6 11.2833 10.5 11 10.5C10.7167 10.5 10.475 10.6 10.275 10.8C10.0917 10.9833 10 11.2167 10 11.5C10 11.7833 10.0917 12.025 10.275 12.225C10.475 12.4083 10.7167 12.5 11 12.5ZM17 12.5C17.2833 12.5 17.5167 12.4083 17.7 12.225C17.9 12.025 18 11.7833 18 11.5C18 11.2167 17.9 10.9833 17.7 10.8C17.5167 10.6 17.2833 10.5 17 10.5C16.7167 10.5 16.475 10.6 16.275 10.8C16.0917 10.9833 16 11.2167 16 11.5C16 11.7833 16.0917 12.025 16.275 12.225C16.475 12.4083 16.7167 12.5 17 12.5ZM2 16V15L3 14C2.16667 14 1.45833 13.7083 0.875 13.125C0.291667 12.5417 0 11.8333 0 11V3C0 1.9 0.491667 1.125 1.475 0.675C2.45833 0.225 4.13333 0 6.5 0C8.96667 0 10.6667 0.216667 11.6 0.65C12.5333 1.08333 13 1.86667 13 3V4H11V3H2V9H7V16H2ZM3 12C3.28333 12 3.51667 11.9083 3.7 11.725C3.9 11.525 4 11.2833 4 11C4 10.7167 3.9 10.4833 3.7 10.3C3.51667 10.1 3.28333 10 3 10C2.71667 10 2.475 10.1 2.275 10.3C2.09167 10.4833 2 10.7167 2 11C2 11.2833 2.09167 11.525 2.275 11.725C2.475 11.9083 2.71667 12 3 12ZM9.5 13H18.5V10H9.5V13Z" fill="#0095FF"/>
</svg>
